<?xml version="1.0" encoding="UTF-8"?>
<svg width="155px" height="26px" viewBox="0 0 155 26" version="1.1" xmlns="http://www.w3.org/2000/svg" xmlns:xlink="http://www.w3.org/1999/xlink">
    <title>Group 28</title>
    <g id="HOME" stroke="none" stroke-width="1" fill="none" fill-rule="evenodd">
        <g id="Home---Macbook-air_EDIT" transform="translate(-130.000000, -1849.000000)">
            <g id="Group-44" transform="translate(129.984375, 1849.000000)">
                <g id="Group-28" transform="translate(0.015625, 0.000000)">
                    <path d="M76.9824992,7.1273455 C73.1800408,7.1273455 69.9306693,8.47034773 69.9306693,12.3271759 C69.9306693,12.4550377 69.981651,12.5776635 70.0724091,12.6680755 C70.1631672,12.7584874 70.2862651,12.80928 70.4146164,12.80928 L73.1454708,12.80928 C73.227182,12.80928 73.3080974,12.7932473 73.3835887,12.7620971 C73.4590799,12.7309468 73.5276702,12.6852895 73.5854487,12.6277313 C73.6432272,12.5701732 73.689062,12.5018419 73.7203315,12.4266385 C73.751601,12.3514352 73.7676976,12.2708337 73.7676976,12.1894341 C73.7676976,11.0530473 75.1158356,10.4331977 76.9479293,10.4331977 C78.780023,10.4331977 80.3701398,11.2252265 80.3701398,13.0847687 L80.3701398,14.7032581 L74.7355919,14.7032581 C73.270499,14.693316 71.8591345,15.2522633 70.800793,16.2615676 C69.7424516,17.2708719 69.1203712,18.6511552 69.0664741,20.1097064 C69.0635195,20.3741454 69.0750614,20.638549 69.1010441,20.9017347 L69.1010441,20.9017347 C70.4146206,27.4790044 79.5750804,25.585023 80.8886569,25.0684835 C84.1725983,23.7599168 84.5874162,21.6248889 84.5874162,20.9706056 C84.621984,19.2832432 84.5874162,13.4979998 84.5874162,12.7748445 L84.5874162,12.2927405 C84.3108737,8.36704042 80.7849577,7.1273455 76.9824992,7.1273455 Z M76.3948423,22.2102972 C74.4244776,22.2102972 73.2146107,21.452706 73.2146107,19.9719594 C73.2146107,18.4912128 74.3899182,17.8024951 76.187444,17.8024951 L80.3701398,17.8024951 L80.3701398,18.6633969 C80.3701398,20.557375 79.7824872,22.2102972 76.3948423,22.2102972 Z M23.678946,0.06797238 C23.4955869,0.06797238 23.3197373,0.14053315 23.1900829,0.269693076 C23.0604285,0.398853001 22.9875899,0.574031979 22.9875899,0.756691708 L22.9875899,24.6552529 C22.9875899,24.8379127 23.0604285,25.0130916 23.1900829,25.1422516 C23.3197373,25.2714115 23.4955869,25.3439723 23.678946,25.3439723 L26.5135049,25.3439723 C26.6968639,25.3439723 26.8727136,25.2714115 27.002368,25.1422516 C27.1320224,25.0130916 27.204861,24.8379127 27.204861,24.6552529 L27.204861,0.756691708 C27.204861,0.574031979 27.1320224,0.398853001 27.002368,0.269693076 C26.8727136,0.14053315 26.6968639,0.06797238 26.5135049,0.06797238 L23.678946,0.06797238 Z M92.4343173,24.6552529 C92.4343173,24.8379127 92.3614682,25.0130916 92.2318137,25.1422516 C92.1021593,25.2714115 91.9263202,25.3439723 91.7429612,25.3439723 L88.908397,25.3439723 C88.725038,25.3439723 88.549183,25.2714115 88.4195286,25.1422516 C88.2898742,25.0130916 88.2170356,24.8379127 88.2170356,24.6552529 L88.2170356,0.963306981 C88.2170356,0.584511343 88.5281512,0.06797238 88.908397,0.06797238 L91.7429612,0.06797238 C91.9263202,0.06797238 92.1021593,0.14053315 92.2318137,0.269693076 C92.3614682,0.398853001 92.4343173,0.574031979 92.4343173,0.756691708 L92.4343173,24.6552529 Z M19.3234005,8.16042449 C19.3234005,8.31568526 19.2614904,8.46458634 19.1512841,8.57437228 C19.0410779,8.68415821 18.8916041,8.74583749 18.7357489,8.74583749 L15.3135384,8.74583749 C15.2653246,8.7506653 15.2166267,8.74534113 15.1706118,8.73021058 C15.1245969,8.71508002 15.0822916,8.69047958 15.0464365,8.65800833 C15.0105814,8.62553709 14.9819777,8.58592022 14.9624855,8.541726 C14.9429933,8.49753177 14.9330475,8.44974919 14.9332904,8.40147783 C14.9332904,5.19893289 12.1332962,4.26916186 9.88638888,4.26916186 C7.6394816,4.26916186 4.56294912,5.50885514 4.56294912,9.02132365 L4.56294912,16.9071605 C4.56294912,19.8686537 7.15553247,21.590454 10.0592279,21.590454 C12.9629233,21.590454 14.9332904,20.3507565 14.9332904,17.1137758 C14.9332904,16.958515 14.871375,16.8096139 14.7611688,16.699828 C14.6509625,16.590042 14.501494,16.5283654 14.3456388,16.5283654 L9.16046815,16.5283654 C9.00461297,16.5283654 8.85513918,16.4666887 8.74493293,16.3569028 C8.63472668,16.2471169 8.57281653,16.0982131 8.57281653,15.9429524 L8.57281653,12.9814598 C8.56773651,12.9032706 8.57945578,12.8249024 8.60719129,12.7515828 C8.63492679,12.6782632 8.67803986,12.611679 8.73365578,12.5562752 C8.78927169,12.5008714 8.85610816,12.4579228 8.92970844,12.4302931 C9.00330872,12.4026633 9.0819796,12.3909888 9.16046815,12.3960494 L18.7357489,12.3960494 C18.8916041,12.3960494 19.0410779,12.4577261 19.1512841,12.567512 C19.2614904,12.6772979 19.3234005,12.826199 19.3234005,12.9814598 L19.3234005,17.5270089 C19.3234005,23.0367636 14.7604494,25.6538939 10.0592279,25.6538939 C4.66665029,25.6538939 0,22.6579658 0,17.1482112 L0,9.26237699 C0,3.4426988 4.45924366,0.17128133 9.88638888,0.17128133 C14.5876104,0.17128133 19.3234005,2.47849003 19.3234005,7.98824466 L19.3234005,8.16042449 Z M50.2615907,18.9388804 C50.2615907,23.4499921 54.0986085,25.8949498 58.4195841,25.8949498 C62.7405596,25.8949498 66.4393189,23.2433782 66.4393189,18.456779 L66.4393189,14.8065671 C66.4393189,10.2954553 63.051672,7.09291006 58.281315,7.43726972 C56.8706252,7.56535212 55.5323987,8.1178159 54.4442866,9.02132365 L54.4442866,0.825565218 C54.4442866,0.642905488 54.371448,0.46772651 54.2417936,0.338566585 C54.1121392,0.209406659 53.9362895,0.136845889 53.7529305,0.136845889 L50.9183769,0.136845889 C50.7350178,0.136845889 50.5591682,0.209406659 50.4295138,0.338566585 C50.2998593,0.46772651 50.2270208,0.642905488 50.2270208,0.825565218 L50.2270208,17.1137758 L50.2615907,17.1137758 L50.2615907,18.9388804 Z M58.454154,22.3136062 C56.691196,22.3136062 54.5825662,21.0394774 54.5825662,18.9044476 L54.5825662,14.5310783 C54.5825662,11.9828167 56.5183591,11.0530462 58.3158849,11.0530462 C60.1134106,11.0530462 62.1529133,12.2927421 62.1529133,14.427772 L62.1529133,18.8355767 C62.1529133,21.3838383 60.217112,22.3136062 58.454154,22.3136062 Z M31.2147284,14.7032581 L31.2147284,18.7322678 C31.2147284,23.2778153 35.0517515,25.6883319 39.372727,25.6883319 C43.6937026,25.6883319 47.3924566,23.071199 47.3924566,18.2501637 L47.3924566,14.6343872 C47.3924566,10.0888397 43.5208655,7.26508989 39.2344579,7.26508989 C35.2937284,7.26508989 31.2147284,9.88222281 31.2147284,14.7032581 Z M39.372727,22.1414263 C37.6097691,22.1414263 35.501134,20.8672956 35.501134,18.6978297 L35.501134,14.3588984 C35.501134,11.776201 37.4369322,10.8464309 39.2344579,10.8464309 C41.0319837,10.8464309 43.0714811,12.0861262 43.0714811,14.2555921 L43.0714811,18.6289588 C43.0714811,21.2116563 41.135685,22.1414263 39.372727,22.1414263 Z" id="Vector" fill="#00486D"></path>
                    <path d="M135.672167,25.0521629 C135.543462,25.1739663 135.372654,25.2417829 135.19513,25.2415618 L131.56551,25.2415618 C131.387986,25.2417829 131.217177,25.1739663 131.088472,25.0521629 C130.959767,24.9303595 130.88303,24.7639064 130.874154,24.5872805 L130.874154,14.3253615 C130.874154,13.0167948 130.355641,11.5016133 128.00503,11.5016133 C125.654418,11.5016133 125.066759,12.3969468 125.135895,13.1545381 L125.135895,24.5872805 C125.127019,24.7639064 125.050281,24.9303595 124.921576,25.0521629 C124.792871,25.1739663 124.622063,25.2417829 124.444539,25.2415618 L120.780359,25.2415618 C120.689543,25.2461986 120.598696,25.2329431 120.51303,25.2025523 C120.427365,25.1721614 120.348558,25.1252357 120.281126,25.0644584 C120.213694,25.0036812 120.15896,24.9302484 120.12006,24.8483667 C120.08116,24.7664849 120.058861,24.6777618 120.054433,24.5872805 L120.054433,23.7263813 L120.054433,11.2949954 C120.019865,9.64206893 124.340835,7.0593731 127.728481,7.0593731 C132.671678,7.0593731 135.886486,9.95199283 135.886486,14.3942324 L135.886486,24.5872805 C135.87761,24.7639064 135.800872,24.9303595 135.672167,25.0521629 Z M155.002492,17.0458033 C155.002492,17.1392194 154.983635,17.2316834 154.94675,17.3175693 C154.909864,17.4034552 154.855825,17.4809669 154.78792,17.5453918 C154.720015,17.6098167 154.639675,17.6598071 154.551764,17.6923211 C154.463854,17.724835 154.370212,17.7391935 154.276555,17.7345227 L143.664254,17.7345227 L143.664254,18.5609864 C143.664254,20.7304523 145.600051,21.866836 147.639552,21.866836 C148.918561,21.866836 150.508664,21.1781167 151.51113,20.3172175 C151.574455,20.2579865 151.648959,20.2118613 151.730302,20.181504 C151.811644,20.1511467 151.898221,20.1371637 151.985024,20.1403664 C152.071828,20.1435691 152.157126,20.1638893 152.235991,20.2001575 C152.314856,20.2364258 152.385713,20.2879204 152.444465,20.3516556 L154.241996,22.004583 C154.378305,22.1240624 154.461966,22.2921601 154.474902,22.4725708 C154.487838,22.6529816 154.429014,22.8312247 154.311136,22.9687911 C152.582745,24.9316411 149.990147,25.7925393 147.190154,25.7925393 C142.696339,25.7925393 138.513642,23.5197644 138.513642,18.4576774 L138.513642,15.0140808 C138.513642,9.74537788 142.592639,7.0593731 147.086455,7.0593731 C151.58027,7.0593731 155.002492,9.40101723 155.002492,14.2220525 L155.002492,14.2220525 L155.002492,17.0458033 Z M147.017315,10.9162003 C145.427196,10.9162003 143.664254,11.9148428 143.664254,14.2220525 L143.664254,14.5664122 L150.128418,14.5664122 L150.128418,14.0154372 C150.128418,11.8804074 148.607434,10.9162003 147.017315,10.9162003 Z M117.323578,16.5292638 L117.323578,14.5319767 L117.150739,14.738592 C115.975433,16.1504666 111.550749,21.1436806 103.081635,25.3104326 L102.874226,25.4137416 L103.116205,25.4826125 C104.35248,25.8345451 105.632937,26.0084869 106.918664,25.999152 C109.493493,26.0304792 112.003221,25.1930513 114.039636,23.6230724 L114.039636,23.6230724 C116.18284,21.9012741 117.323578,19.456321 117.323578,16.5292638 Z M104.222369,20.7304533 L104.429778,20.6615772 L104.256939,20.5582735 C103.894912,20.389306 103.566904,20.1559051 103.289044,19.8695542 C102.873998,19.482387 102.545564,19.0123884 102.32518,18.4902291 C102.104795,17.9680699 101.997408,17.4054846 102.010031,16.8391881 L102.010031,9.19440196 C102.010031,7.16267991 103.254479,4.78659985 106.780395,4.78659985 C110.306312,4.78659985 111.689019,7.02493766 111.689019,9.09109564 L111.689019,16.4603903 L111.827288,16.357084 C113.746323,14.9271479 115.560021,13.362042 117.254438,11.6737931 L117.254438,11.6737931 L117.254438,9.29771091 C117.254438,6.47396174 116.182832,4.06344459 114.074195,2.3760822 C111.965559,0.688719819 109.580386,0 106.745825,0 C101.595222,0 96.3754823,3.2714168 96.3754823,9.46989074 L96.3754823,17.0458033 C96.3185515,19.1704885 97.0720298,21.2377194 98.4841209,22.8310441 L98.5878201,22.8310441 L98.5878201,22.8310441 C100.512013,22.2600227 102.394612,21.5581802 104.222369,20.7304533 Z" id="Vector" fill="#009DE0"></path>
                </g>
            </g>
        </g>
    </g>
</svg>